#define pix_width 50
#define pix_height 50
static unsigned char pix_bits[] = {
   0xff, 0xff, 0xff, 0xff, 0xff, 0xff, 0x03, 0x01, 0x00, 0x00, 0x00, 0x00,
   0x00, 0x02, 0x01, 0x00, 0x00, 0x00, 0x00, 0x00, 0x02, 0x01, 0x00, 0x00,
   0x00, 0x00, 0x00, 0x02, 0x01, 0x00, 0x00, 0x00, 0x00, 0x00, 0x02, 0x01,
   0x00, 0x00, 0x00, 0x00, 0x00, 0x02, 0x01, 0x00, 0x00, 0x00, 0x00, 0x00,
   0x02, 0x01, 0x00, 0x00, 0x00, 0x00, 0x00, 0x02, 0x01, 0x00, 0x00, 0x00,
   0x00, 0x00, 0x02, 0x01, 0x00, 0x00, 0x00, 0x00, 0x00, 0x02, 0x01, 0x00,
   0x00, 0x00, 0x00, 0x00, 0x02, 0x01, 0x00, 0x00, 0x00, 0x00, 0x00, 0x02,
   0x01, 0x00, 0x00, 0x00, 0x00, 0x00, 0x02, 0x01, 0x00, 0x00, 0x00, 0x00,
   0x00, 0x02, 0x01, 0x00, 0x00, 0x00, 0x00, 0x00, 0x02, 0x01, 0x18, 0xc0,
   0x71, 0x18, 0x00, 0x02, 0x01, 0x3c, 0xc0, 0x79, 0x3c, 0x00, 0x02, 0x01,
   0x3c, 0xc0, 0x71, 0x3c, 0x00, 0x02, 0x01, 0x3c, 0xc0, 0x01, 0x38, 0x00,
   0x02, 0x01, 0x1c, 0xc0, 0x01, 0x38, 0x00, 0x02, 0x01, 0x1c, 0xc0, 0x71,
   0x18, 0x00, 0x02, 0x01, 0x3c, 0xe0, 0x79, 0x18, 0x00, 0x02, 0x01, 0xfc,
   0xff, 0x71, 0x18, 0x00, 0x02, 0x01, 0xfc, 0xff, 0x71, 0x18, 0x00, 0x02,
   0x01, 0x1c, 0xc0, 0x71, 0x18, 0x00, 0x02, 0x01, 0x1c, 0xc0, 0x71, 0x18,
   0x00, 0x02, 0x01, 0x1c, 0xc0, 0x71, 0x18, 0x00, 0x02, 0x01, 0x1c, 0xc0,
   0x71, 0x00, 0x00, 0x02, 0x01, 0x3c, 0xc0, 0x71, 0x18, 0x00, 0x02, 0x01,
   0x3c, 0xc0, 0x71, 0x38, 0x00, 0x02, 0x01, 0x3c, 0xc0, 0x71, 0x3c, 0x00,
   0x02, 0x01, 0x18, 0xc0, 0x30, 0x18, 0x00, 0x02, 0x01, 0x00, 0x00, 0x00,
   0x00, 0x00, 0x02, 0x01, 0x00, 0x00, 0x00, 0x00, 0x00, 0x02, 0x01, 0x00,
   0x00, 0x00, 0x00, 0x00, 0x02, 0x01, 0x00, 0x00, 0x00, 0x00, 0x00, 0x02,
   0x01, 0x00, 0x00, 0x00, 0x00, 0x00, 0x02, 0x01, 0x00, 0x00, 0x00, 0x00,
   0x00, 0x02, 0x01, 0x00, 0x00, 0x00, 0x00, 0x00, 0x02, 0x01, 0x00, 0x00,
   0x00, 0x00, 0x00, 0x02, 0x01, 0x00, 0x00, 0x00, 0x00, 0x00, 0x02, 0x01,
   0x00, 0x00, 0x00, 0x00, 0x00, 0x02, 0x01, 0x00, 0x00, 0x00, 0x00, 0x00,
   0x02, 0x01, 0x00, 0x00, 0x00, 0x00, 0x00, 0x02, 0x01, 0x00, 0x00, 0x00,
   0x00, 0x00, 0x02, 0x01, 0x00, 0x00, 0x00, 0x00, 0x00, 0x02, 0x01, 0x00,
   0x00, 0x00, 0x00, 0x00, 0x02, 0x01, 0x00, 0x00, 0x00, 0x00, 0x00, 0x02,
   0x01, 0x00, 0x00, 0x00, 0x00, 0x00, 0x02, 0xff, 0xff, 0xff, 0xff, 0xff,
   0xff, 0x03 };
