#define pix2_width 100
#define pix2_height 50
static unsigned char pix2_bits[] = {
   0xff, 0xff, 0xff, 0xff, 0xff, 0xff, 0xff, 0xff, 0xff, 0xff, 0xff, 0xff,
   0x0f, 0x03, 0x00, 0x00, 0x00, 0x00, 0x00, 0x00, 0x00, 0x00, 0x00, 0x00,
   0x00, 0x0c, 0x03, 0x00, 0x00, 0x00, 0x00, 0x00, 0x00, 0x00, 0x00, 0x00,
   0x00, 0x00, 0x0c, 0x03, 0x00, 0x00, 0x00, 0x00, 0x00, 0x00, 0x00, 0x00,
   0x00, 0x00, 0x00, 0x0c, 0x03, 0x00, 0x00, 0x00, 0x00, 0x00, 0x00, 0x00,
   0x00, 0x00, 0x00, 0x00, 0x0c, 0x03, 0x00, 0x00, 0x00, 0x00, 0x00, 0x00,
   0x00, 0x00, 0x00, 0x00, 0x00, 0x0c, 0x03, 0x00, 0x00, 0x00, 0x00, 0x00,
   0x00, 0x00, 0x00, 0x00, 0x00, 0x00, 0x0c, 0x03, 0x00, 0x00, 0x00, 0x00,
   0x00, 0x00, 0x00, 0x00, 0x00, 0x00, 0x00, 0x0c, 0x03, 0x00, 0x00, 0x00,
   0x00, 0x00, 0x00, 0x00, 0x00, 0x00, 0x00, 0x00, 0x0c, 0x03, 0x00, 0x00,
   0x00, 0x00, 0x00, 0x00, 0x00, 0x00, 0x00, 0x00, 0x00, 0x0c, 0x03, 0x00,
   0x00, 0x00, 0x00, 0x00, 0x00, 0x00, 0x00, 0x00, 0x00, 0x00, 0x0c, 0x03,
   0x00, 0x00, 0x00, 0x00, 0x00, 0x00, 0x00, 0x00, 0x00, 0x00, 0x00, 0x0c,
   0x03, 0x00, 0x00, 0x00, 0x00, 0x00, 0x00, 0x00, 0x00, 0x00, 0x00, 0x00,
   0x0c, 0x03, 0x00, 0x00, 0x00, 0x00, 0x00, 0x00, 0x00, 0x00, 0x00, 0x00,
   0x00, 0x0c, 0x03, 0x00, 0x00, 0x00, 0x00, 0x00, 0x00, 0x00, 0x00, 0x00,
   0x00, 0x00, 0x0c, 0x03, 0x00, 0xc0, 0x03, 0x00, 0xf0, 0x03, 0x3f, 0xc0,
   0x03, 0x00, 0x00, 0x0c, 0x03, 0x00, 0xf0, 0x0f, 0x00, 0xf0, 0xc3, 0x3f,
   0xf0, 0x0f, 0x00, 0x00, 0x0c, 0x03, 0x00, 0xf0, 0x0f, 0x00, 0xf0, 0x03,
   0x3f, 0xf0, 0x0f, 0x00, 0x00, 0x0c, 0x03, 0x00, 0xf0, 0x0f, 0x00, 0xf0,
   0x03, 0x00, 0xc0, 0x0f, 0x00, 0x00, 0x0c, 0x03, 0x00, 0xf0, 0x03, 0x00,
   0xf0, 0x03, 0x00, 0xc0, 0x0f, 0x00, 0x00, 0x0c, 0x03, 0x00, 0xf0, 0x03,
   0x00, 0xf0, 0x03, 0x3f, 0xc0, 0x03, 0x00, 0x00, 0x0c, 0x03, 0x00, 0xf0,
   0x0f, 0x00, 0xfc, 0xc3, 0x3f, 0xc0, 0x03, 0x00, 0x00, 0x0c, 0x03, 0x00,
   0xf0, 0xff, 0xff, 0xff, 0x03, 0x3f, 0xc0, 0x03, 0x00, 0x00, 0x0c, 0x03,
   0x00, 0xf0, 0xff, 0xff, 0xff, 0x03, 0x3f, 0xc0, 0x03, 0x00, 0x00, 0x0c,
   0x03, 0x00, 0xf0, 0x03, 0x00, 0xf0, 0x03, 0x3f, 0xc0, 0x03, 0x00, 0x00,
   0x0c, 0x03, 0x00, 0xf0, 0x03, 0x00, 0xf0, 0x03, 0x3f, 0xc0, 0x03, 0x00,
   0x00, 0x0c, 0x03, 0x00, 0xf0, 0x03, 0x00, 0xf0, 0x03, 0x3f, 0xc0, 0x03,
   0x00, 0x00, 0x0c, 0x03, 0x00, 0xf0, 0x03, 0x00, 0xf0, 0x03, 0x3f, 0x00,
   0x00, 0x00, 0x00, 0x0c, 0x03, 0x00, 0xf0, 0x0f, 0x00, 0xf0, 0x03, 0x3f,
   0xc0, 0x03, 0x00, 0x00, 0x0c, 0x03, 0x00, 0xf0, 0x0f, 0x00, 0xf0, 0x03,
   0x3f, 0xc0, 0x0f, 0x00, 0x00, 0x0c, 0x03, 0x00, 0xf0, 0x0f, 0x00, 0xf0,
   0x03, 0x3f, 0xf0, 0x0f, 0x00, 0x00, 0x0c, 0x03, 0x00, 0xc0, 0x03, 0x00,
   0xf0, 0x00, 0x0f, 0xc0, 0x03, 0x00, 0x00, 0x0c, 0x03, 0x00, 0x00, 0x00,
   0x00, 0x00, 0x00, 0x00, 0x00, 0x00, 0x00, 0x00, 0x0c, 0x03, 0x00, 0x00,
   0x00, 0x00, 0x00, 0x00, 0x00, 0x00, 0x00, 0x00, 0x00, 0x0c, 0x03, 0x00,
   0x00, 0x00, 0x00, 0x00, 0x00, 0x00, 0x00, 0x00, 0x00, 0x00, 0x0c, 0x03,
   0x00, 0x00, 0x00, 0x00, 0x00, 0x00, 0x00, 0x00, 0x00, 0x00, 0x00, 0x0c,
   0x03, 0x00, 0x00, 0x00, 0x00, 0x00, 0x00, 0x00, 0x00, 0x00, 0x00, 0x00,
   0x0c, 0x03, 0x00, 0x00, 0x00, 0x00, 0x00, 0x00, 0x00, 0x00, 0x00, 0x00,
   0x00, 0x0c, 0x03, 0x00, 0x00, 0x00, 0x00, 0x00, 0x00, 0x00, 0x00, 0x00,
   0x00, 0x00, 0x0c, 0x03, 0x00, 0x00, 0x00, 0x00, 0x00, 0x00, 0x00, 0x00,
   0x00, 0x00, 0x00, 0x0c, 0x03, 0x00, 0x00, 0x00, 0x00, 0x00, 0x00, 0x00,
   0x00, 0x00, 0x00, 0x00, 0x0c, 0x03, 0x00, 0x00, 0x00, 0x00, 0x00, 0x00,
   0x00, 0x00, 0x00, 0x00, 0x00, 0x0c, 0x03, 0x00, 0x00, 0x00, 0x00, 0x00,
   0x00, 0x00, 0x00, 0x00, 0x00, 0x00, 0x0c, 0x03, 0x00, 0x00, 0x00, 0x00,
   0x00, 0x00, 0x00, 0x00, 0x00, 0x00, 0x00, 0x0c, 0x03, 0x00, 0x00, 0x00,
   0x00, 0x00, 0x00, 0x00, 0x00, 0x00, 0x00, 0x00, 0x0c, 0x03, 0x00, 0x00,
   0x00, 0x00, 0x00, 0x00, 0x00, 0x00, 0x00, 0x00, 0x00, 0x0c, 0x03, 0x00,
   0x00, 0x00, 0x00, 0x00, 0x00, 0x00, 0x00, 0x00, 0x00, 0x00, 0x0c, 0x03,
   0x00, 0x00, 0x00, 0x00, 0x00, 0x00, 0x00, 0x00, 0x00, 0x00, 0x00, 0x0c,
   0x03, 0x00, 0x00, 0x00, 0x00, 0x00, 0x00, 0x00, 0x00, 0x00, 0x00, 0x00,
   0x0c, 0xff, 0xff, 0xff, 0xff, 0xff, 0xff, 0xff, 0xff, 0xff, 0xff, 0xff,
   0xff, 0x0f };
